<?xml version="1.0" encoding="iso-8859-1"?>
<!-- Generator: Adobe Illustrator 18.0.0, SVG Export Plug-In . SVG Version: 6.00 Build 0)  -->
<!DOCTYPE svg PUBLIC "-//W3C//DTD SVG 1.1//EN" "http://www.w3.org/Graphics/SVG/1.1/DTD/svg11.dtd">
<svg version="1.1" id="Capa_1" xmlns="http://www.w3.org/2000/svg" xmlns:xlink="http://www.w3.org/1999/xlink" x="0px" y="0px"
	 viewBox="0 0 28 28" style="enable-background:new 0 0 28 28;" xml:space="preserve">
<g>
	<path d="M10.448,24.289c0.225,0.256,0.542,0.423,0.908,0.423c0.003,0,0.007-0.003,0.011-0.003c0.003,0,0.007,0.003,0.011,0.003
		c0.313,0,0.626-0.119,0.865-0.358L22.356,14.24c0.478-0.477,0.478-1.252,0-1.729c-0.478-0.478-1.251-0.478-1.729,0l-8.048,8.049
		V1.222C12.579,0.546,12.032,0,11.356,0s-1.223,0.546-1.223,1.222v19.304l-8.047-8.015c-0.479-0.478-1.253-0.47-1.73,0.005
		c-0.477,0.478-0.474,1.251,0.004,1.729L10.448,24.289z" fill="#2F50D1"/>
	<path d="M21.491,27.161H1.223C0.547,27.161,0,27.705,0,28.383c0,0.673,0.547,1.223,1.223,1.223h20.269
		c0.676,0,1.223-0.55,1.223-1.223C22.714,27.705,22.167,27.161,21.491,27.161z" fill="#2F50D1"/>
</g>
<g>
</g>
<g>
</g>
<g>
</g>
<g>
</g>
<g>
</g>
<g>
</g>
<g>
</g>
<g>
</g>
<g>
</g>
<g>
</g>
<g>
</g>
<g>
</g>
<g>
</g>
<g>
</g>
<g>
</g>
</svg>
