<?xml version="1.0" standalone="no"?><!DOCTYPE svg PUBLIC "-//W3C//DTD SVG 1.1//EN" "http://www.w3.org/Graphics/SVG/1.1/DTD/svg11.dtd"><svg t="1504163582093" class="icon" style="" viewBox="0 0 1024 1024" version="1.1" xmlns="http://www.w3.org/2000/svg" p-id="5955" xmlns:xlink="http://www.w3.org/1999/xlink" width="200" height="200"><defs><style type="text/css"></style></defs><path d="M722.358 445.722c-68.331-0.457-148.017-20.305-233.758-78.604-217.34-147.765-365.937-11.735-372.156-5.901-12.224 11.553-31.533 11.075-43.137-1.1-11.575-12.21-11.164-31.429 0.97-43.059 1.847-1.788 189.385-176.724 448.673-0.468 218.447 148.53 382.69 10.989 389.565 5.081 12.758-10.998 32.033-9.632 43.041 3.073 11.020 12.709 9.73 31.916-2.922 42.963-1.365 1.205-92.745 78.93-230.277 78.014z" p-id="5956" fill="#1296db"></path><path d="M721.215 615.15c-68.32-0.449-148.003-20.317-233.742-78.604-218.845-148.77-370.559-7.438-372.074-5.968-12.162 11.674-31.51 11.248-43.164-0.918-11.686-12.164-11.284-31.488 0.897-43.173 1.853-1.765 189.391-176.724 448.673-0.468 218.465 148.511 382.69 10.989 389.574 5.061 12.747-10.991 32.021-9.607 43.041 3.11 11.018 12.69 9.73 31.9-2.931 42.955-1.354 1.205-92.742 78.914-230.275 78.005z" p-id="5957" fill="#1296db"></path><path d="M720.086 784.58c-68.32-0.457-148.023-20.336-233.76-78.604-218.835-148.798-370.555-7.42-372.065-5.986-12.162 11.689-31.506 11.276-43.173-0.897-11.674-12.182-11.284-31.506 0.907-43.193 1.853-1.778 189.391-176.713 448.684-0.449 218.447 148.511 382.69 10.998 389.565 5.081 12.755-11.020 32.021-9.654 43.041 3.065 11.020 12.718 9.73 31.907-2.922 42.992-1.372 1.174-92.742 78.89-230.275 77.994z" p-id="5958" fill="#1296db"></path></svg>