<?xml version="1.0" standalone="no"?><!DOCTYPE svg PUBLIC "-//W3C//DTD SVG 1.1//EN" "http://www.w3.org/Graphics/SVG/1.1/DTD/svg11.dtd"><svg t="1504161516523" class="icon" style="" viewBox="0 0 1024 1024" version="1.1" xmlns="http://www.w3.org/2000/svg" p-id="1928" xmlns:xlink="http://www.w3.org/1999/xlink" width="200" height="200"><defs><style type="text/css"></style></defs><path d="M156.672 722.432c0 108.544 89.088 196.608 199.68 196.608 110.08 0 199.68-88.064 199.68-196.608s-199.68-393.216-199.68-393.216-199.68 284.672-199.68 393.216z m499.2-252.416c86.528 0 156.672-67.072 156.672-150.016 0-82.944-156.672-299.52-156.672-299.52s-156.672 217.088-156.672 299.52c-0.512 82.944 69.632 150.016 156.672 150.016z m99.328 196.608s-114.176 162.816-114.176 224.768c0 61.952 51.2 112.128 114.176 112.128s114.176-50.176 114.176-112.128c0-62.464-114.176-224.768-114.176-224.768z" fill="#1296db" p-id="1929"></path></svg>