<?xml version="1.0" standalone="no"?><!DOCTYPE svg PUBLIC "-//W3C//DTD SVG 1.1//EN" "http://www.w3.org/Graphics/SVG/1.1/DTD/svg11.dtd"><svg t="1500972717595" class="icon" style="" viewBox="0 0 1024 1024" version="1.1" xmlns="http://www.w3.org/2000/svg" p-id="1610" xmlns:xlink="http://www.w3.org/1999/xlink" width="200" height="200"><defs><style type="text/css"></style></defs><path d="M698.181818 698.181818 698.181818 744.727273 698.181818 977.454545 744.727273 977.454545 744.727273 791.272727 930.909091 977.454545 977.454545 930.909091 791.272727 744.727273 977.454545 744.727273 977.454545 698.181818 744.727273 698.181818Z" p-id="1611" fill="#1296db"></path><path d="M325.818182 698.181818 325.818182 744.727273 325.818182 977.454545 279.272727 977.454545 279.272727 791.272727 93.090909 977.454545 46.545455 930.909091 232.727273 744.727273 46.545455 744.727273 46.545455 698.181818 279.272727 698.181818Z" p-id="1612" fill="#1296db"></path><path d="M698.181818 325.818182 698.181818 279.272727 698.181818 46.545455 744.727273 46.545455 744.727273 232.727273 930.909091 46.545455 977.454545 93.090909 791.272727 279.272727 977.454545 279.272727 977.454545 325.818182 744.727273 325.818182Z" p-id="1613" fill="#1296db"></path><path d="M325.818182 325.818182 325.818182 279.272727 325.818182 46.545455 279.272727 46.545455 279.272727 232.727273 93.090909 46.545455 46.545455 93.090909 232.727273 279.272727 46.545455 279.272727 46.545455 325.818182 279.272727 325.818182Z" p-id="1614" fill="#1296db"></path></svg>